<svg width="264" height="406" viewBox="0 0 264 406" fill="none" xmlns="http://www.w3.org/2000/svg">
<circle cx="125.45" cy="117.086" r="91.9964" fill="#C4C4C4" fill-opacity="0.4"/>
<g clip-path="url(#clip0_21_187)">
<path d="M179.811 171.449H75.2699V66.9072H179.811V171.449Z" fill="#FF5F96"/>
<path d="M179.811 171.449H127.541V66.9072H179.811V171.449Z" fill="#FF5F96"/>
<path d="M173.686 165.323H81.3953V73.0322H173.686V165.323Z" fill="#7F1D32"/>
<path d="M173.686 165.323H127.541V73.0322H173.686V165.323Z" fill="#7F1D32"/>
<path d="M108.809 138.78V103.987H115.572V138.78H108.809Z" fill="#FF5F96"/>
<path d="M132.527 139.27C124.989 139.27 120.325 132.986 120.325 125.941C120.325 117.953 125.703 112.661 131.792 112.661C136.95 112.661 139.616 116.14 140.466 117.61V103.007H147.032V131.233C147.032 131.919 147.995 133.161 148.551 133.193V138.78C147.407 139.008 146.476 139.123 145.758 139.123C141.016 139.123 141.446 134.32 141.446 134.32C140.498 135.954 137.673 139.27 132.527 139.27ZM134.242 133.683C138.362 133.683 140.237 129.992 140.466 129.371V123.245C140.204 122.527 137.852 118.247 133.85 118.247C129.378 118.247 127.137 122.683 127.137 126.088C127.137 129.83 129.889 133.683 134.242 133.683Z" fill="#FF5F96"/>
<path d="M147.032 131.232V103.006H140.465V117.609C139.615 116.139 136.95 112.66 131.792 112.66C130.31 112.66 128.871 112.975 127.541 113.565V123.48C128.369 120.776 130.473 118.246 133.85 118.246C137.852 118.246 140.204 122.526 140.465 123.244V129.37C140.236 129.991 138.362 133.682 134.242 133.682C130.866 133.682 128.454 131.364 127.541 128.578V138.22C129.014 138.891 130.684 139.268 132.527 139.268C137.673 139.268 140.498 135.953 141.446 134.319C141.446 134.319 141.017 139.121 145.758 139.121C146.476 139.121 147.407 139.006 148.551 138.778V133.192C147.995 133.16 147.032 131.918 147.032 131.232Z" fill="#FF5F96"/>
</g>
<path d="M70.481 220.467C86.2306 228.842 103.685 233.507 121.513 234.106C139.341 234.706 157.069 231.225 173.346 223.928C189.623 216.631 204.018 205.712 215.431 192.003C226.844 178.295 234.975 162.16 239.201 144.831C243.428 127.501 243.639 109.435 239.819 92.0111C235.999 74.5873 228.249 58.2667 217.159 44.2952C206.07 30.3236 191.935 19.0704 175.833 11.3947C159.731 3.719 142.089 -0.176313 124.252 0.00612407L124.435 17.9232C139.542 17.7686 154.485 21.0679 168.123 27.5689C181.76 34.07 193.732 43.6011 203.125 55.4345C212.517 67.268 219.082 81.091 222.317 95.8484C225.553 110.606 225.374 125.907 221.794 140.585C218.214 155.263 211.328 168.928 201.661 180.539C191.994 192.149 179.803 201.397 166.017 207.578C152.231 213.758 137.215 216.707 122.115 216.199C107.016 215.691 92.2324 211.739 78.8929 204.647L70.481 220.467Z" fill="#3B5999"/>
<path d="M56.6938 304.597H36.2037L32.1642 314.081H24.3194L42.7605 273.101H50.254L68.7537 314.081H60.7918L56.6938 304.597ZM54.1764 298.626L46.4487 280.711L38.7796 298.626H54.1764ZM103.595 270.642V314.081H96.5699V310.042C95.36 311.525 93.8574 312.637 92.0621 313.379C90.3058 314.12 88.3544 314.491 86.2078 314.491C83.2026 314.491 80.4901 313.827 78.0703 312.5C75.6895 311.173 73.8161 309.3 72.4501 306.88C71.0841 304.421 70.4011 301.611 70.4011 298.45C70.4011 295.289 71.0841 292.498 72.4501 290.078C73.8161 287.659 75.6895 285.785 78.0703 284.458C80.4901 283.131 83.2026 282.468 86.2078 282.468C88.2763 282.468 90.1692 282.819 91.8865 283.522C93.6037 284.224 95.0673 285.278 96.2772 286.683V270.642H103.595ZM87.0859 308.227C88.8422 308.227 90.4229 307.836 91.8279 307.056C93.233 306.236 94.3453 305.085 95.1649 303.602C95.9845 302.119 96.3943 300.401 96.3943 298.45C96.3943 296.499 95.9845 294.781 95.1649 293.298C94.3453 291.815 93.233 290.683 91.8279 289.903C90.4229 289.083 88.8422 288.673 87.0859 288.673C85.3296 288.673 83.749 289.083 82.3439 289.903C80.9389 290.683 79.8266 291.815 79.007 293.298C78.1874 294.781 77.7776 296.499 77.7776 298.45C77.7776 300.401 78.1874 302.119 79.007 303.602C79.8266 305.085 80.9389 306.236 82.3439 307.056C83.749 307.836 85.3296 308.227 87.0859 308.227ZM127.219 314.491C124.057 314.491 121.208 313.808 118.671 312.442C116.134 311.076 114.144 309.183 112.7 306.763C111.295 304.304 110.592 301.533 110.592 298.45C110.592 295.367 111.295 292.615 112.7 290.195C114.144 287.776 116.134 285.883 118.671 284.517C121.208 283.151 124.057 282.468 127.219 282.468C130.419 282.468 133.288 283.151 135.824 284.517C138.361 285.883 140.332 287.776 141.737 290.195C143.181 292.615 143.903 295.367 143.903 298.45C143.903 301.533 143.181 304.304 141.737 306.763C140.332 309.183 138.361 311.076 135.824 312.442C133.288 313.808 130.419 314.491 127.219 314.491ZM127.219 308.227C129.912 308.227 132.136 307.329 133.893 305.534C135.649 303.738 136.527 301.377 136.527 298.45C136.527 295.523 135.649 293.162 133.893 291.366C132.136 289.571 129.912 288.673 127.219 288.673C124.526 288.673 122.301 289.571 120.545 291.366C118.827 293.162 117.969 295.523 117.969 298.45C117.969 301.377 118.827 303.738 120.545 305.534C122.301 307.329 124.526 308.227 127.219 308.227ZM168.23 282.468C171.274 282.468 173.987 283.131 176.367 284.458C178.787 285.785 180.68 287.659 182.046 290.078C183.412 292.498 184.095 295.289 184.095 298.45C184.095 301.611 183.412 304.421 182.046 306.88C180.68 309.3 178.787 311.173 176.367 312.5C173.987 313.827 171.274 314.491 168.23 314.491C166.083 314.491 164.112 314.12 162.317 313.379C160.561 312.637 159.078 311.525 157.868 310.042V314.081H150.901V270.642H158.219V286.624C159.468 285.258 160.932 284.224 162.61 283.522C164.327 282.819 166.2 282.468 168.23 282.468ZM167.41 308.227C170.103 308.227 172.308 307.329 174.026 305.534C175.782 303.738 176.66 301.377 176.66 298.45C176.66 295.523 175.782 293.162 174.026 291.366C172.308 289.571 170.103 288.673 167.41 288.673C165.654 288.673 164.073 289.083 162.668 289.903C161.263 290.683 160.151 291.815 159.331 293.298C158.512 294.781 158.102 296.499 158.102 298.45C158.102 300.401 158.512 302.119 159.331 303.602C160.151 305.085 161.263 306.236 162.668 307.056C164.073 307.836 165.654 308.227 167.41 308.227ZM220.424 298.626C220.424 299.133 220.385 299.855 220.307 300.792H195.777C196.207 303.094 197.319 304.929 199.114 306.295C200.949 307.622 203.212 308.285 205.905 308.285C209.34 308.285 212.169 307.153 214.394 304.89L218.316 309.398C216.911 311.076 215.136 312.344 212.989 313.203C210.842 314.062 208.423 314.491 205.73 314.491C202.295 314.491 199.27 313.808 196.655 312.442C194.04 311.076 192.011 309.183 190.567 306.763C189.162 304.304 188.459 301.533 188.459 298.45C188.459 295.406 189.142 292.674 190.508 290.254C191.913 287.795 193.845 285.883 196.304 284.517C198.763 283.151 201.534 282.468 204.617 282.468C207.662 282.468 210.374 283.151 212.755 284.517C215.175 285.844 217.048 287.737 218.375 290.195C219.741 292.615 220.424 295.425 220.424 298.626ZM204.617 288.322C202.276 288.322 200.285 289.025 198.646 290.43C197.046 291.796 196.07 293.63 195.719 295.933H213.457C213.145 293.669 212.189 291.835 210.589 290.43C208.988 289.025 206.998 288.322 204.617 288.322ZM5.68669 357.819H13.0046V389.081H5.68669V357.819ZM9.37491 352.667C8.04793 352.667 6.93561 352.257 6.03795 351.438C5.14029 350.579 4.69146 349.525 4.69146 348.276C4.69146 347.028 5.14029 345.993 6.03795 345.174C6.93561 344.315 8.04793 343.886 9.37491 343.886C10.7019 343.886 11.8142 344.296 12.7119 345.115C13.6095 345.896 14.0584 346.891 14.0584 348.101C14.0584 349.389 13.6095 350.482 12.7119 351.379C11.8532 352.238 10.7409 352.667 9.37491 352.667ZM40.3479 357.468C44.2898 357.468 47.4511 358.619 49.8319 360.922C52.2126 363.224 53.403 366.64 53.403 371.167V389.081H46.0851V372.104C46.0851 369.372 45.4412 367.323 44.1532 365.957C42.8653 364.551 41.0309 363.849 38.6501 363.849C35.9572 363.849 33.8301 364.669 32.2689 366.308C30.7078 367.908 29.9272 370.23 29.9272 373.274V389.081H22.6093V357.819H29.576V361.858C30.7859 360.414 32.308 359.322 34.1423 358.58C35.9767 357.839 38.0452 357.468 40.3479 357.468ZM93.5902 345.642V389.081H86.565V385.042C85.3551 386.525 83.8525 387.637 82.0572 388.379C80.3009 389.12 78.3494 389.491 76.2028 389.491C73.1976 389.491 70.4851 388.827 68.0653 387.5C65.6846 386.173 63.8112 384.3 62.4452 381.88C61.0792 379.421 60.3962 376.611 60.3962 373.45C60.3962 370.289 61.0792 367.498 62.4452 365.078C63.8112 362.659 65.6846 360.785 68.0653 359.458C70.4851 358.131 73.1976 357.468 76.2028 357.468C78.2714 357.468 80.1643 357.819 81.8815 358.522C83.5988 359.224 85.0624 360.278 86.2723 361.683V345.642H93.5902ZM77.081 383.227C78.8373 383.227 80.4179 382.836 81.823 382.056C83.228 381.236 84.3403 380.085 85.1599 378.602C85.9795 377.119 86.3893 375.401 86.3893 373.45C86.3893 371.499 85.9795 369.781 85.1599 368.298C84.3403 366.815 83.228 365.683 81.823 364.903C80.4179 364.083 78.8373 363.673 77.081 363.673C75.3247 363.673 73.744 364.083 72.339 364.903C70.934 365.683 69.8216 366.815 69.002 368.298C68.1824 369.781 67.7726 371.499 67.7726 373.45C67.7726 375.401 68.1824 377.119 69.002 378.602C69.8216 380.085 70.934 381.236 72.339 382.056C73.744 382.836 75.3247 383.227 77.081 383.227ZM132.552 373.626C132.552 374.133 132.513 374.855 132.435 375.792H107.905C108.335 378.094 109.447 379.929 111.242 381.295C113.077 382.622 115.34 383.285 118.033 383.285C121.468 383.285 124.297 382.153 126.522 379.89L130.444 384.398C129.039 386.076 127.264 387.344 125.117 388.203C122.97 389.062 120.551 389.491 117.858 389.491C114.423 389.491 111.398 388.808 108.783 387.442C106.169 386.076 104.139 384.183 102.695 381.763C101.29 379.304 100.587 376.533 100.587 373.45C100.587 370.406 101.27 367.674 102.636 365.254C104.041 362.795 105.973 360.883 108.432 359.517C110.891 358.151 113.662 357.468 116.745 357.468C119.79 357.468 122.502 358.151 124.883 359.517C127.303 360.844 129.176 362.737 130.503 365.195C131.869 367.615 132.552 370.425 132.552 373.626ZM116.745 363.322C114.404 363.322 112.413 364.025 110.774 365.43C109.174 366.796 108.198 368.63 107.847 370.933H125.585C125.273 368.669 124.317 366.835 122.717 365.43C121.117 364.025 119.126 363.322 116.745 363.322ZM149.241 389.491C146.704 389.491 144.226 389.159 141.806 388.496C139.386 387.832 137.454 386.993 136.01 385.978L138.82 380.417C140.225 381.353 141.903 382.114 143.855 382.7C145.845 383.246 147.797 383.519 149.709 383.519C154.08 383.519 156.266 382.368 156.266 380.065C156.266 378.973 155.7 378.212 154.568 377.782C153.476 377.353 151.7 376.943 149.241 376.553C146.665 376.163 144.557 375.714 142.918 375.206C141.318 374.699 139.913 373.821 138.703 372.572C137.532 371.284 136.947 369.508 136.947 367.244C136.947 364.278 138.176 361.917 140.635 360.161C143.133 358.365 146.489 357.468 150.704 357.468C152.851 357.468 154.998 357.721 157.144 358.229C159.291 358.697 161.047 359.341 162.413 360.161L159.603 365.722C156.949 364.161 153.963 363.381 150.646 363.381C148.499 363.381 146.86 363.712 145.728 364.376C144.636 365 144.089 365.839 144.089 366.893C144.089 368.064 144.675 368.903 145.845 369.411C147.055 369.879 148.909 370.328 151.407 370.757C153.905 371.147 155.954 371.596 157.554 372.104C159.154 372.611 160.52 373.47 161.652 374.679C162.823 375.889 163.408 377.607 163.408 379.831C163.408 382.758 162.14 385.1 159.603 386.856C157.066 388.613 153.612 389.491 149.241 389.491ZM169.71 357.819H177.028V389.081H169.71V357.819ZM173.399 352.667C172.072 352.667 170.959 352.257 170.062 351.438C169.164 350.579 168.715 349.525 168.715 348.276C168.715 347.028 169.164 345.993 170.062 345.174C170.959 344.315 172.072 343.886 173.399 343.886C174.726 343.886 175.838 344.296 176.736 345.115C177.633 345.896 178.082 346.891 178.082 348.101C178.082 349.389 177.633 350.482 176.736 351.379C175.877 352.238 174.765 352.667 173.399 352.667ZM217.661 357.819V384.339C217.661 395.345 212.041 400.848 200.801 400.848C197.795 400.848 194.946 400.458 192.253 399.677C189.56 398.936 187.336 397.843 185.579 396.399L188.858 390.896C190.224 392.028 191.941 392.925 194.01 393.589C196.117 394.291 198.244 394.643 200.391 394.643C203.825 394.643 206.343 393.862 207.943 392.301C209.543 390.74 210.343 388.359 210.343 385.159V383.519C209.094 384.885 207.572 385.92 205.777 386.622C203.981 387.325 202.01 387.676 199.864 387.676C196.898 387.676 194.205 387.052 191.785 385.803C189.404 384.515 187.511 382.719 186.106 380.417C184.74 378.114 184.057 375.48 184.057 372.513C184.057 369.547 184.74 366.932 186.106 364.669C187.511 362.366 189.404 360.59 191.785 359.341C194.205 358.092 196.898 357.468 199.864 357.468C202.127 357.468 204.177 357.839 206.011 358.58C207.884 359.322 209.445 360.453 210.694 361.976V357.819H217.661ZM200.976 381.47C203.747 381.47 206.011 380.651 207.767 379.012C209.562 377.333 210.46 375.167 210.46 372.513C210.46 369.898 209.562 367.771 207.767 366.132C206.011 364.493 203.747 363.673 200.976 363.673C198.166 363.673 195.863 364.493 194.068 366.132C192.312 367.771 191.434 369.898 191.434 372.513C191.434 375.167 192.312 377.333 194.068 379.012C195.863 380.651 198.166 381.47 200.976 381.47ZM245.02 357.468C248.962 357.468 252.123 358.619 254.504 360.922C256.885 363.224 258.075 366.64 258.075 371.167V389.081H250.757V372.104C250.757 369.372 250.114 367.323 248.826 365.957C247.538 364.551 245.703 363.849 243.323 363.849C240.63 363.849 238.502 364.669 236.941 366.308C235.38 367.908 234.6 370.23 234.6 373.274V389.081H227.282V357.819H234.248V361.858C235.458 360.414 236.98 359.322 238.815 358.58C240.649 357.839 242.718 357.468 245.02 357.468Z" fill="#545454"/>
<defs>
<clipPath id="clip0_21_187">
<rect width="104.541" height="104.541" fill="white" transform="translate(75.2699 66.9072)"/>
</clipPath>
</defs>
</svg>
