<svg width="335" height="406" viewBox="0 0 335 406" fill="none" xmlns="http://www.w3.org/2000/svg">
<circle cx="167.266" cy="117.086" r="91.9964" fill="#C4C4C4" fill-opacity="0.4"/>
<g clip-path="url(#clip0_21_143)">
<path d="M221.628 171.448H117.086V66.9062H221.628V171.448Z" fill="#00C3FF"/>
<path d="M221.628 171.448H169.357V66.9062H221.628V171.448Z" fill="#00C3FF"/>
<path d="M215.502 165.322H123.212V73.0312H215.502V165.322Z" fill="#063E8B"/>
<path d="M215.502 165.322H169.357V73.0312H215.502V165.322Z" fill="#063E8B"/>
<path d="M169.357 158.865C166.903 158.865 164.595 157.909 162.86 156.173L132.36 125.673C130.625 123.938 129.669 121.631 129.669 119.176C129.669 116.722 130.625 114.415 132.36 112.679L162.86 82.1796C164.595 80.4441 166.903 79.4883 169.357 79.4883C171.811 79.4883 174.119 80.4441 175.854 82.1796L206.354 112.679C208.09 114.415 209.045 116.722 209.045 119.176C209.045 121.631 208.09 123.938 206.354 125.673L175.854 156.173C174.119 157.909 171.811 158.865 169.357 158.865ZM169.357 85.6137C168.539 85.6137 167.77 85.9325 167.191 86.5109L136.692 117.011C136.113 117.589 135.794 118.358 135.794 119.176C135.794 119.995 136.113 120.764 136.692 121.342L167.191 151.842C167.77 152.42 168.539 152.739 169.357 152.739C170.175 152.739 170.944 152.42 171.523 151.842L202.023 121.342C202.601 120.764 202.92 119.995 202.92 119.176C202.92 118.358 202.601 117.589 202.023 117.011L171.523 86.5109C170.944 85.9325 170.175 85.6137 169.357 85.6137Z" fill="#CCEFFF"/>
<path d="M206.354 112.679L175.854 82.1796C174.119 80.4441 171.811 79.4883 169.357 79.4883V85.6137C170.175 85.6137 170.944 85.9325 171.523 86.5109L202.022 117.011C202.601 117.589 202.92 118.358 202.92 119.176C202.92 119.995 202.601 120.764 202.022 121.342L171.523 151.842C170.944 152.42 170.175 152.739 169.357 152.739V158.865C171.811 158.865 174.119 157.909 175.854 156.173L206.354 125.673C208.089 123.938 209.045 121.631 209.045 119.176C209.045 116.722 208.089 114.415 206.354 112.679Z" fill="#CCEFFF"/>
<path d="M180.183 130.53C176.231 130.53 173.42 128.733 172.44 127.884L174.074 125.139C175.119 125.88 177.524 127.394 180.085 127.394C181.744 127.394 182.894 126.698 182.894 125.499C182.894 124.027 180.466 123.55 179.137 123.179C178.027 122.874 173.028 122.172 173.028 118.41C173.028 114.787 176.18 112.758 179.758 112.758C183.514 112.758 185.519 114.283 186.455 115.11L184.691 117.756C183.82 117.103 181.88 115.861 179.725 115.861C178.137 115.861 177.112 116.54 177.112 117.789C177.112 119.347 179.845 119.793 180.477 119.945C181.653 120.25 187.109 121.083 187.109 125.107C187.109 129.863 182.317 130.53 180.183 130.53Z" fill="#00C3FF"/>
<path d="M153.786 130.203V107.008H163.619C168.12 107.008 171.003 111.146 171.003 114.718C171.003 118.928 167.803 122.428 163.783 122.428H158.294V130.203H153.786ZM158.294 118.475H163.521C165.103 118.475 166.429 116.999 166.429 114.718C166.429 112.758 165.239 110.961 163.325 110.961H158.294V118.475Z" fill="#00C3FF"/>
<path d="M169.357 109.97V119.611C170.387 118.273 171.003 116.563 171.003 114.717C171.003 113.106 170.414 111.38 169.357 109.97Z" fill="#00C3FF"/>
</g>
<path d="M76.273 190.771C95.8154 214.904 124.144 230.285 155.027 233.531C185.91 236.777 216.818 227.622 240.951 208.079C265.084 188.537 280.465 160.208 283.711 129.325C286.957 98.4421 277.802 67.5344 258.259 43.4015L244.334 54.6777C260.886 75.1174 268.64 101.295 265.891 127.452C263.142 153.609 250.115 177.603 229.675 194.155C209.235 210.706 183.057 218.461 156.9 215.711C130.743 212.962 106.75 199.935 90.1979 179.495L76.273 190.771Z" fill="#3B5999"/>
<path d="M100.328 304.597H79.8374L75.798 314.081H67.9532L86.3943 273.101H93.8878L112.387 314.081H104.426L100.328 304.597ZM97.8102 298.626L90.0825 280.711L82.4133 298.626H97.8102ZM147.229 270.642V314.081H140.204V310.042C138.994 311.525 137.491 312.637 135.696 313.379C133.94 314.12 131.988 314.491 129.842 314.491C126.836 314.491 124.124 313.827 121.704 312.5C119.323 311.173 117.45 309.3 116.084 306.88C114.718 304.421 114.035 301.611 114.035 298.45C114.035 295.289 114.718 292.498 116.084 290.078C117.45 287.659 119.323 285.785 121.704 284.458C124.124 283.131 126.836 282.468 129.842 282.468C131.91 282.468 133.803 282.819 135.52 283.522C137.237 284.224 138.701 285.278 139.911 286.683V270.642H147.229ZM130.72 308.227C132.476 308.227 134.057 307.836 135.462 307.056C136.867 306.236 137.979 305.085 138.799 303.602C139.618 302.119 140.028 300.401 140.028 298.45C140.028 296.499 139.618 294.781 138.799 293.298C137.979 291.815 136.867 290.683 135.462 289.903C134.057 289.083 132.476 288.673 130.72 288.673C128.963 288.673 127.383 289.083 125.978 289.903C124.573 290.683 123.46 291.815 122.641 293.298C121.821 294.781 121.411 296.499 121.411 298.45C121.411 300.401 121.821 302.119 122.641 303.602C123.46 305.085 124.573 306.236 125.978 307.056C127.383 307.836 128.963 308.227 130.72 308.227ZM170.852 314.491C167.691 314.491 164.842 313.808 162.305 312.442C159.768 311.076 157.778 309.183 156.334 306.763C154.929 304.304 154.226 301.533 154.226 298.45C154.226 295.367 154.929 292.615 156.334 290.195C157.778 287.776 159.768 285.883 162.305 284.517C164.842 283.151 167.691 282.468 170.852 282.468C174.053 282.468 176.921 283.151 179.458 284.517C181.995 285.883 183.966 287.776 185.371 290.195C186.815 292.615 187.537 295.367 187.537 298.45C187.537 301.533 186.815 304.304 185.371 306.763C183.966 309.183 181.995 311.076 179.458 312.442C176.921 313.808 174.053 314.491 170.852 314.491ZM170.852 308.227C173.545 308.227 175.77 307.329 177.526 305.534C179.283 303.738 180.161 301.377 180.161 298.45C180.161 295.523 179.283 293.162 177.526 291.366C175.77 289.571 173.545 288.673 170.852 288.673C168.159 288.673 165.935 289.571 164.178 291.366C162.461 293.162 161.603 295.523 161.603 298.45C161.603 301.377 162.461 303.738 164.178 305.534C165.935 307.329 168.159 308.227 170.852 308.227ZM211.864 282.468C214.908 282.468 217.62 283.131 220.001 284.458C222.421 285.785 224.314 287.659 225.68 290.078C227.046 292.498 227.729 295.289 227.729 298.45C227.729 301.611 227.046 304.421 225.68 306.88C224.314 309.3 222.421 311.173 220.001 312.5C217.62 313.827 214.908 314.491 211.864 314.491C209.717 314.491 207.746 314.12 205.951 313.379C204.195 312.637 202.711 311.525 201.502 310.042V314.081H194.535V270.642H201.853V286.624C203.102 285.258 204.565 284.224 206.244 283.522C207.961 282.819 209.834 282.468 211.864 282.468ZM211.044 308.227C213.737 308.227 215.942 307.329 217.659 305.534C219.416 303.738 220.294 301.377 220.294 298.45C220.294 295.523 219.416 293.162 217.659 291.366C215.942 289.571 213.737 288.673 211.044 288.673C209.288 288.673 207.707 289.083 206.302 289.903C204.897 290.683 203.785 291.815 202.965 293.298C202.146 294.781 201.736 296.499 201.736 298.45C201.736 300.401 202.146 302.119 202.965 303.602C203.785 305.085 204.897 306.236 206.302 307.056C207.707 307.836 209.288 308.227 211.044 308.227ZM264.058 298.626C264.058 299.133 264.019 299.855 263.941 300.792H239.411C239.84 303.094 240.953 304.929 242.748 306.295C244.582 307.622 246.846 308.285 249.539 308.285C252.973 308.285 255.803 307.153 258.028 304.89L261.95 309.398C260.545 311.076 258.769 312.344 256.623 313.203C254.476 314.062 252.056 314.491 249.363 314.491C245.929 314.491 242.904 313.808 240.289 312.442C237.674 311.076 235.645 309.183 234.201 306.763C232.796 304.304 232.093 301.533 232.093 298.45C232.093 295.406 232.776 292.674 234.142 290.254C235.547 287.795 237.479 285.883 239.938 284.517C242.397 283.151 245.168 282.468 248.251 282.468C251.295 282.468 254.008 283.151 256.389 284.517C258.808 285.844 260.682 287.737 262.009 290.195C263.375 292.615 264.058 295.425 264.058 298.626ZM248.251 288.322C245.909 288.322 243.919 289.025 242.28 290.43C240.679 291.796 239.704 293.63 239.352 295.933H257.091C256.779 293.669 255.823 291.835 254.222 290.43C252.622 289.025 250.632 288.322 248.251 288.322ZM24.4053 348.101C27.9569 348.101 31.0402 348.686 33.6551 349.857C36.3091 351.028 38.3386 352.706 39.7436 354.892C41.1487 357.077 41.8512 359.673 41.8512 362.678C41.8512 365.644 41.1487 368.24 39.7436 370.464C38.3386 372.65 36.3091 374.328 33.6551 375.499C31.0402 376.67 27.9569 377.255 24.4053 377.255H15.1555V389.081H7.54488V348.101H24.4053ZM24.0541 370.816C27.3715 370.816 29.8889 370.113 31.6061 368.708C33.3234 367.303 34.182 365.293 34.182 362.678C34.182 360.063 33.3234 358.053 31.6061 356.648C29.8889 355.243 27.3715 354.541 24.0541 354.541H15.1555V370.816H24.0541ZM67.059 357.468C71.0009 357.468 74.1623 358.619 76.543 360.922C78.9238 363.224 80.1142 366.64 80.1142 371.167V389.081H72.7963V372.104C72.7963 369.372 72.1523 367.323 70.8643 365.957C69.5764 364.551 67.742 363.849 65.3613 363.849C62.6683 363.849 60.5412 364.669 58.9801 366.308C57.4189 367.908 56.6384 370.23 56.6384 373.274V389.081H49.3205V345.642H56.6384V361.449C57.8482 360.161 59.3313 359.185 61.0876 358.522C62.883 357.819 64.8734 357.468 67.059 357.468ZM103.734 389.491C100.572 389.491 97.7231 388.808 95.1863 387.442C92.6494 386.076 90.6589 384.183 89.2149 381.763C87.8098 379.304 87.1073 376.533 87.1073 373.45C87.1073 370.367 87.8098 367.615 89.2149 365.195C90.6589 362.776 92.6494 360.883 95.1863 359.517C97.7231 358.151 100.572 357.468 103.734 357.468C106.934 357.468 109.803 358.151 112.339 359.517C114.876 360.883 116.847 362.776 118.252 365.195C119.696 367.615 120.418 370.367 120.418 373.45C120.418 376.533 119.696 379.304 118.252 381.763C116.847 384.183 114.876 386.076 112.339 387.442C109.803 388.808 106.934 389.491 103.734 389.491ZM103.734 383.227C106.427 383.227 108.651 382.329 110.407 380.534C112.164 378.738 113.042 376.377 113.042 373.45C113.042 370.523 112.164 368.162 110.407 366.366C108.651 364.571 106.427 363.673 103.734 363.673C101.041 363.673 98.8159 364.571 97.0597 366.366C95.3424 368.162 94.4838 370.523 94.4838 373.45C94.4838 376.377 95.3424 378.738 97.0597 380.534C98.8159 382.329 101.041 383.227 103.734 383.227ZM146.208 387.383C145.35 388.086 144.296 388.613 143.047 388.964C141.837 389.315 140.549 389.491 139.183 389.491C135.749 389.491 133.095 388.593 131.221 386.798C129.348 385.003 128.411 382.388 128.411 378.953V363.907H123.26V358.053H128.411V350.911H135.729V358.053H144.101V363.907H135.729V378.777C135.729 380.3 136.1 381.47 136.842 382.29C137.583 383.071 138.656 383.461 140.061 383.461C141.701 383.461 143.067 383.032 144.159 382.173L146.208 387.383ZM165.25 389.491C162.088 389.491 159.239 388.808 156.702 387.442C154.165 386.076 152.175 384.183 150.731 381.763C149.326 379.304 148.623 376.533 148.623 373.45C148.623 370.367 149.326 367.615 150.731 365.195C152.175 362.776 154.165 360.883 156.702 359.517C159.239 358.151 162.088 357.468 165.25 357.468C168.45 357.468 171.319 358.151 173.855 359.517C176.392 360.883 178.363 362.776 179.768 365.195C181.212 367.615 181.934 370.367 181.934 373.45C181.934 376.533 181.212 379.304 179.768 381.763C178.363 384.183 176.392 386.076 173.855 387.442C171.319 388.808 168.45 389.491 165.25 389.491ZM165.25 383.227C167.943 383.227 170.167 382.329 171.924 380.534C173.68 378.738 174.558 376.377 174.558 373.45C174.558 370.523 173.68 368.162 171.924 366.366C170.167 364.571 167.943 363.673 165.25 363.673C162.557 363.673 160.332 364.571 158.576 366.366C156.858 368.162 156 370.523 156 373.45C156 376.377 156.858 378.738 158.576 380.534C160.332 382.329 162.557 383.227 165.25 383.227ZM198.592 389.491C196.055 389.491 193.577 389.159 191.157 388.496C188.737 387.832 186.805 386.993 185.361 385.978L188.171 380.417C189.576 381.353 191.254 382.114 193.206 382.7C195.196 383.246 197.148 383.519 199.06 383.519C203.431 383.519 205.617 382.368 205.617 380.065C205.617 378.973 205.051 378.212 203.919 377.782C202.826 377.353 201.051 376.943 198.592 376.553C196.016 376.163 193.908 375.714 192.269 375.206C190.669 374.699 189.264 373.821 188.054 372.572C186.883 371.284 186.298 369.508 186.298 367.244C186.298 364.278 187.527 361.917 189.986 360.161C192.484 358.365 195.84 357.468 200.055 357.468C202.202 357.468 204.349 357.721 206.495 358.229C208.642 358.697 210.398 359.341 211.764 360.161L208.954 365.722C206.3 364.161 203.314 363.381 199.997 363.381C197.85 363.381 196.211 363.712 195.079 364.376C193.986 365 193.44 365.839 193.44 366.893C193.44 368.064 194.025 368.903 195.196 369.411C196.406 369.879 198.26 370.328 200.758 370.757C203.256 371.147 205.305 371.596 206.905 372.104C208.505 372.611 209.871 373.47 211.003 374.679C212.174 375.889 212.759 377.607 212.759 379.831C212.759 382.758 211.491 385.1 208.954 386.856C206.417 388.613 202.963 389.491 198.592 389.491ZM236.8 357.468C240.742 357.468 243.903 358.619 246.284 360.922C248.665 363.224 249.855 366.64 249.855 371.167V389.081H242.537V372.104C242.537 369.372 241.893 367.323 240.605 365.957C239.317 364.551 237.483 363.849 235.102 363.849C232.409 363.849 230.282 364.669 228.721 366.308C227.16 367.908 226.379 370.23 226.379 373.274V389.081H219.061V345.642H226.379V361.449C227.589 360.161 229.072 359.185 230.828 358.522C232.624 357.819 234.614 357.468 236.8 357.468ZM273.474 389.491C270.313 389.491 267.464 388.808 264.927 387.442C262.39 386.076 260.4 384.183 258.956 381.763C257.551 379.304 256.848 376.533 256.848 373.45C256.848 370.367 257.551 367.615 258.956 365.195C260.4 362.776 262.39 360.883 264.927 359.517C267.464 358.151 270.313 357.468 273.474 357.468C276.675 357.468 279.543 358.151 282.08 359.517C284.617 360.883 286.588 362.776 287.993 365.195C289.437 367.615 290.159 370.367 290.159 373.45C290.159 376.533 289.437 379.304 287.993 381.763C286.588 384.183 284.617 386.076 282.08 387.442C279.543 388.808 276.675 389.491 273.474 389.491ZM273.474 383.227C276.167 383.227 278.392 382.329 280.148 380.534C281.905 378.738 282.783 376.377 282.783 373.45C282.783 370.523 281.905 368.162 280.148 366.366C278.392 364.571 276.167 363.673 273.474 363.673C270.781 363.673 268.557 364.571 266.801 366.366C265.083 368.162 264.225 370.523 264.225 373.45C264.225 376.377 265.083 378.738 266.801 380.534C268.557 382.329 270.781 383.227 273.474 383.227ZM314.486 357.468C317.53 357.468 320.243 358.131 322.623 359.458C325.043 360.785 326.936 362.659 328.302 365.078C329.668 367.498 330.351 370.289 330.351 373.45C330.351 376.611 329.668 379.421 328.302 381.88C326.936 384.3 325.043 386.173 322.623 387.5C320.243 388.827 317.53 389.491 314.486 389.491C310.271 389.491 306.934 388.086 304.475 385.276V400.438H297.157V357.819H304.124V361.917C305.334 360.434 306.817 359.322 308.573 358.58C310.368 357.839 312.339 357.468 314.486 357.468ZM313.666 383.227C316.359 383.227 318.564 382.329 320.282 380.534C322.038 378.738 322.916 376.377 322.916 373.45C322.916 370.523 322.038 368.162 320.282 366.366C318.564 364.571 316.359 363.673 313.666 363.673C311.91 363.673 310.329 364.083 308.924 364.903C307.519 365.683 306.407 366.815 305.587 368.298C304.768 369.781 304.358 371.499 304.358 373.45C304.358 375.401 304.768 377.119 305.587 378.602C306.407 380.085 307.519 381.236 308.924 382.056C310.329 382.836 311.91 383.227 313.666 383.227Z" fill="#545454"/>
<defs>
<clipPath id="clip0_21_143">
<rect width="104.541" height="104.541" fill="white" transform="translate(117.086 66.9062)"/>
</clipPath>
</defs>
</svg>
