<svg width="297" height="331" viewBox="0 0 297 331" fill="none" xmlns="http://www.w3.org/2000/svg">
<circle cx="142.176" cy="117.086" r="91.9964" fill="#C4C4C4" fill-opacity="0.4"/>
<g clip-path="url(#clip0_21_172)">
<path d="M196.538 171.449H91.9964V66.9072H196.538V171.449Z" fill="#FF80E4"/>
<path d="M196.538 171.449H144.267V66.9072H196.538V171.449Z" fill="#FF80E4"/>
<path d="M190.412 165.323H98.1219V73.0322H190.412V165.323Z" fill="#7F1363"/>
<path d="M190.412 165.323H144.267V73.0322H190.412V165.323Z" fill="#7F1363"/>
<path d="M121.901 103.986L130.575 116.923L139.199 103.986H146.501L134.103 121.628L146.109 138.779H138.807L130.575 126.332L122.293 138.779H114.943L126.949 121.628L114.55 103.986H121.901Z" fill="#FF80E4"/>
<path d="M158.507 139.27C150.968 139.27 146.305 132.986 146.305 125.941C146.305 117.953 151.683 112.661 157.772 112.661C162.93 112.661 165.595 116.14 166.445 117.61V103.007H173.012V131.233C173.012 131.919 173.975 133.161 174.531 133.193V138.78C173.387 139.008 172.456 139.123 171.737 139.123C166.996 139.123 167.425 134.32 167.425 134.32C166.478 135.954 163.653 139.27 158.507 139.27ZM160.222 133.683C164.342 133.683 166.217 129.992 166.445 129.371V123.245C166.184 122.527 163.832 118.247 159.83 118.247C155.358 118.247 153.117 122.683 153.117 126.088C153.117 129.83 155.869 133.683 160.222 133.683Z" fill="#FF80E4"/>
<path d="M144.267 103.987V107.166L146.501 103.987H144.267Z" fill="#FF80E4"/>
<path d="M144.267 138.779H146.109L144.267 136.147V138.779Z" fill="#FF80E4"/>
</g>
<path d="M36.06 67.6035C25.2504 90.7846 22.3289 116.868 27.7421 141.866C33.1552 166.864 46.6051 189.402 66.036 206.035C85.4669 222.668 109.81 232.481 135.344 233.973C160.878 235.466 186.198 228.556 207.435 214.3C228.671 200.045 244.655 179.227 252.944 155.03C261.233 130.833 261.37 104.587 253.335 80.304C245.3 56.0213 229.534 35.0377 208.448 20.5606C187.362 6.0834 162.116 -1.09085 136.567 0.134421L137.426 18.0318C159.064 16.9941 180.447 23.0704 198.307 35.3321C216.166 47.5938 229.519 65.3663 236.324 85.9329C243.13 106.5 243.013 128.729 235.993 149.223C228.973 169.718 215.434 187.349 197.448 199.423C179.461 211.498 158.016 217.35 136.389 216.086C114.763 214.822 94.1452 206.51 77.6879 192.423C61.2306 178.335 49.8389 159.247 45.2542 138.074C40.6694 116.901 43.1438 94.8096 52.2992 75.1759L36.06 67.6035Z" fill="#3B5999"/>
<path d="M33.9152 304.597H13.4251L9.38562 314.081H1.54084L19.9819 273.101H27.4755L45.9751 314.081H38.0132L33.9152 304.597ZM31.3979 298.626L23.6702 280.711L16.001 298.626H31.3979ZM80.8165 270.642V314.081H73.7913V310.042C72.5814 311.525 71.0788 312.637 69.2835 313.379C67.5272 314.12 65.5758 314.491 63.4292 314.491C60.424 314.491 57.7115 313.827 55.2917 312.5C52.9109 311.173 51.0376 309.3 49.6715 306.88C48.3055 304.421 47.6225 301.611 47.6225 298.45C47.6225 295.289 48.3055 292.498 49.6715 290.078C51.0376 287.659 52.9109 285.785 55.2917 284.458C57.7115 283.131 60.424 282.468 63.4292 282.468C65.4977 282.468 67.3906 282.819 69.1079 283.522C70.8251 284.224 72.2887 285.278 73.4986 286.683V270.642H80.8165ZM64.3073 308.227C66.0636 308.227 67.6443 307.836 69.0493 307.056C70.4544 306.236 71.5667 305.085 72.3863 303.602C73.2059 302.119 73.6157 300.401 73.6157 298.45C73.6157 296.499 73.2059 294.781 72.3863 293.298C71.5667 291.815 70.4544 290.683 69.0493 289.903C67.6443 289.083 66.0636 288.673 64.3073 288.673C62.551 288.673 60.9704 289.083 59.5653 289.903C58.1603 290.683 57.048 291.815 56.2284 293.298C55.4088 294.781 54.999 296.499 54.999 298.45C54.999 300.401 55.4088 302.119 56.2284 303.602C57.048 305.085 58.1603 306.236 59.5653 307.056C60.9704 307.836 62.551 308.227 64.3073 308.227ZM104.44 314.491C101.279 314.491 98.4296 313.808 95.8927 312.442C93.3559 311.076 91.3654 309.183 89.9213 306.763C88.5163 304.304 87.8138 301.533 87.8138 298.45C87.8138 295.367 88.5163 292.615 89.9213 290.195C91.3654 287.776 93.3559 285.883 95.8927 284.517C98.4296 283.151 101.279 282.468 104.44 282.468C107.64 282.468 110.509 283.151 113.046 284.517C115.583 285.883 117.554 287.776 118.959 290.195C120.403 292.615 121.125 295.367 121.125 298.45C121.125 301.533 120.403 304.304 118.959 306.763C117.554 309.183 115.583 311.076 113.046 312.442C110.509 313.808 107.64 314.491 104.44 314.491ZM104.44 308.227C107.133 308.227 109.358 307.329 111.114 305.534C112.87 303.738 113.748 301.377 113.748 298.45C113.748 295.523 112.87 293.162 111.114 291.366C109.358 289.571 107.133 288.673 104.44 288.673C101.747 288.673 99.5224 289.571 97.7661 291.366C96.0489 293.162 95.1902 295.523 95.1902 298.45C95.1902 301.377 96.0489 303.738 97.7661 305.534C99.5224 307.329 101.747 308.227 104.44 308.227ZM145.451 282.468C148.496 282.468 151.208 283.131 153.589 284.458C156.009 285.785 157.902 287.659 159.268 290.078C160.634 292.498 161.317 295.289 161.317 298.45C161.317 301.611 160.634 304.421 159.268 306.88C157.902 309.3 156.009 311.173 153.589 312.5C151.208 313.827 148.496 314.491 145.451 314.491C143.305 314.491 141.334 314.12 139.538 313.379C137.782 312.637 136.299 311.525 135.089 310.042V314.081H128.123V270.642H135.44V286.624C136.689 285.258 138.153 284.224 139.831 283.522C141.548 282.819 143.422 282.468 145.451 282.468ZM144.632 308.227C147.325 308.227 149.53 307.329 151.247 305.534C153.003 303.738 153.882 301.377 153.882 298.45C153.882 295.523 153.003 293.162 151.247 291.366C149.53 289.571 147.325 288.673 144.632 288.673C142.875 288.673 141.295 289.083 139.89 289.903C138.485 290.683 137.372 291.815 136.553 293.298C135.733 294.781 135.323 296.499 135.323 298.45C135.323 300.401 135.733 302.119 136.553 303.602C137.372 305.085 138.485 306.236 139.89 307.056C141.295 307.836 142.875 308.227 144.632 308.227ZM197.645 298.626C197.645 299.133 197.606 299.855 197.528 300.792H172.999C173.428 303.094 174.54 304.929 176.336 306.295C178.17 307.622 180.434 308.285 183.127 308.285C186.561 308.285 189.391 307.153 191.615 304.89L195.538 309.398C194.133 311.076 192.357 312.344 190.21 313.203C188.064 314.062 185.644 314.491 182.951 314.491C179.516 314.491 176.492 313.808 173.877 312.442C171.262 311.076 169.232 309.183 167.788 306.763C166.383 304.304 165.681 301.533 165.681 298.45C165.681 295.406 166.364 292.674 167.73 290.254C169.135 287.795 171.067 285.883 173.526 284.517C175.984 283.151 178.755 282.468 181.839 282.468C184.883 282.468 187.595 283.151 189.976 284.517C192.396 285.844 194.269 287.737 195.596 290.195C196.962 292.615 197.645 295.425 197.645 298.626ZM181.839 288.322C179.497 288.322 177.506 289.025 175.867 290.43C174.267 291.796 173.291 293.63 172.94 295.933H190.679C190.366 293.669 189.41 291.835 187.81 290.43C186.21 289.025 184.219 288.322 181.839 288.322ZM247.374 314.081L236.251 298.509L225.245 314.081H216.58L231.802 293.181L217.4 273.101H226.006L236.485 287.678L246.847 273.101H255.102L240.759 292.888L256.156 314.081H247.374ZM290.291 270.642V314.081H283.266V310.042C282.056 311.525 280.554 312.637 278.758 313.379C277.002 314.12 275.05 314.491 272.904 314.491C269.899 314.491 267.186 313.827 264.766 312.5C262.386 311.173 260.512 309.3 259.146 306.88C257.78 304.421 257.097 301.611 257.097 298.45C257.097 295.289 257.78 292.498 259.146 290.078C260.512 287.659 262.386 285.785 264.766 284.458C267.186 283.131 269.899 282.468 272.904 282.468C274.972 282.468 276.865 282.819 278.583 283.522C280.3 284.224 281.763 285.278 282.973 286.683V270.642H290.291ZM273.782 308.227C275.538 308.227 277.119 307.836 278.524 307.056C279.929 306.236 281.041 305.085 281.861 303.602C282.681 302.119 283.09 300.401 283.09 298.45C283.09 296.499 282.681 294.781 281.861 293.298C281.041 291.815 279.929 290.683 278.524 289.903C277.119 289.083 275.538 288.673 273.782 288.673C272.026 288.673 270.445 289.083 269.04 289.903C267.635 290.683 266.523 291.815 265.703 293.298C264.883 294.781 264.474 296.499 264.474 298.45C264.474 300.401 264.883 302.119 265.703 303.602C266.523 305.085 267.635 306.236 269.04 307.056C270.445 307.836 272.026 308.227 273.782 308.227Z" fill="#545454"/>
<defs>
<clipPath id="clip0_21_172">
<rect width="104.541" height="104.541" fill="white" transform="translate(91.9964 66.9072)"/>
</clipPath>
</defs>
</svg>
