<svg width="293" height="406" viewBox="0 0 293 406" fill="none" xmlns="http://www.w3.org/2000/svg">
<circle cx="142.176" cy="117.086" r="91.9964" fill="#C4C4C4" fill-opacity="0.4"/>
<g clip-path="url(#clip0_21_158)">
<path d="M196.538 171.448H91.9965V66.9062H196.538V171.448Z" fill="#FEC478"/>
<path d="M196.538 171.448H144.267V66.9062H196.538V171.448Z" fill="#FEC478"/>
<path d="M190.412 165.322H98.1219V73.0312H190.412V165.322Z" fill="#994C0F"/>
<path d="M190.412 165.322H144.267V73.0312H190.412V165.322Z" fill="#994C0F"/>
<path d="M134.365 103.986H140.343L153.574 138.779H146.616L143.381 130.105H131.228L128.043 138.779H121.085L134.365 103.986ZM142.156 125.352L137.354 111.68L132.356 125.352H142.156Z" fill="#FEC478"/>
<path d="M156.76 109.523V103.006H163.326V109.523H156.76ZM156.76 138.779V113.101H163.326V138.779H156.76Z" fill="#FEC478"/>
<path d="M144.267 114.306V132.482L146.616 138.78H153.574L144.267 114.306Z" fill="#FEC478"/>
</g>
<path d="M36.06 67.6035C25.2504 90.7846 22.3289 116.868 27.7421 141.866C33.1552 166.864 46.6051 189.402 66.036 206.035C85.4669 222.668 109.81 232.481 135.344 233.973C160.878 235.466 186.198 228.556 207.435 214.3C228.671 200.045 244.655 179.227 252.944 155.03C261.233 130.833 261.37 104.587 253.335 80.304C245.3 56.0213 229.534 35.0377 208.448 20.5606C187.362 6.0834 162.116 -1.09085 136.567 0.134421L137.426 18.0318C159.064 16.9941 180.447 23.0704 198.307 35.3321C216.166 47.5938 229.519 65.3663 236.324 85.9329C243.13 106.5 243.013 128.729 235.993 149.223C228.973 169.718 215.434 187.349 197.448 199.423C179.461 211.498 158.016 217.35 136.389 216.086C114.763 214.822 94.1452 206.51 77.6879 192.423C61.2306 178.335 49.8389 159.247 45.2542 138.074C40.6694 116.901 43.1438 94.8096 52.2992 75.1759L36.06 67.6035Z" fill="#3B5999"/>
<path d="M79.4193 304.597H58.9292L54.8897 314.081H47.0449L65.486 273.101H72.9795L91.4792 314.081H83.5173L79.4193 304.597ZM76.9019 298.626L69.1742 280.711L61.5051 298.626H76.9019ZM126.321 270.642V314.081H119.295V310.042C118.085 311.525 116.583 312.637 114.788 313.379C113.031 314.12 111.08 314.491 108.933 314.491C105.928 314.491 103.216 313.827 100.796 312.5C98.415 311.173 96.5416 309.3 95.1756 306.88C93.8096 304.421 93.1266 301.611 93.1266 298.45C93.1266 295.289 93.8096 292.498 95.1756 290.078C96.5416 287.659 98.415 285.785 100.796 284.458C103.216 283.131 105.928 282.468 108.933 282.468C111.002 282.468 112.895 282.819 114.612 283.522C116.329 284.224 117.793 285.278 119.003 286.683V270.642H126.321ZM109.811 308.227C111.568 308.227 113.148 307.836 114.553 307.056C115.958 306.236 117.071 305.085 117.89 303.602C118.71 302.119 119.12 300.401 119.12 298.45C119.12 296.499 118.71 294.781 117.89 293.298C117.071 291.815 115.958 290.683 114.553 289.903C113.148 289.083 111.568 288.673 109.811 288.673C108.055 288.673 106.474 289.083 105.069 289.903C103.664 290.683 102.552 291.815 101.732 293.298C100.913 294.781 100.503 296.499 100.503 298.45C100.503 300.401 100.913 302.119 101.732 303.602C102.552 305.085 103.664 306.236 105.069 307.056C106.474 307.836 108.055 308.227 109.811 308.227ZM149.944 314.491C146.783 314.491 143.934 313.808 141.397 312.442C138.86 311.076 136.869 309.183 135.425 306.763C134.02 304.304 133.318 301.533 133.318 298.45C133.318 295.367 134.02 292.615 135.425 290.195C136.869 287.776 138.86 285.883 141.397 284.517C143.934 283.151 146.783 282.468 149.944 282.468C153.144 282.468 156.013 283.151 158.55 284.517C161.087 285.883 163.058 287.776 164.463 290.195C165.907 292.615 166.629 295.367 166.629 298.45C166.629 301.533 165.907 304.304 164.463 306.763C163.058 309.183 161.087 311.076 158.55 312.442C156.013 313.808 153.144 314.491 149.944 314.491ZM149.944 308.227C152.637 308.227 154.862 307.329 156.618 305.534C158.374 303.738 159.252 301.377 159.252 298.45C159.252 295.523 158.374 293.162 156.618 291.366C154.862 289.571 152.637 288.673 149.944 288.673C147.251 288.673 145.026 289.571 143.27 291.366C141.553 293.162 140.694 295.523 140.694 298.45C140.694 301.377 141.553 303.738 143.27 305.534C145.026 307.329 147.251 308.227 149.944 308.227ZM190.955 282.468C194 282.468 196.712 283.131 199.093 284.458C201.513 285.785 203.406 287.659 204.772 290.078C206.138 292.498 206.821 295.289 206.821 298.45C206.821 301.611 206.138 304.421 204.772 306.88C203.406 309.3 201.513 311.173 199.093 312.5C196.712 313.827 194 314.491 190.955 314.491C188.809 314.491 186.838 314.12 185.043 313.379C183.286 312.637 181.803 311.525 180.593 310.042V314.081H173.627V270.642H180.945V286.624C182.193 285.258 183.657 284.224 185.335 283.522C187.053 282.819 188.926 282.468 190.955 282.468ZM190.136 308.227C192.829 308.227 195.034 307.329 196.751 305.534C198.507 303.738 199.386 301.377 199.386 298.45C199.386 295.523 198.507 293.162 196.751 291.366C195.034 289.571 192.829 288.673 190.136 288.673C188.38 288.673 186.799 289.083 185.394 289.903C183.989 290.683 182.876 291.815 182.057 293.298C181.237 294.781 180.827 296.499 180.827 298.45C180.827 300.401 181.237 302.119 182.057 303.602C182.876 305.085 183.989 306.236 185.394 307.056C186.799 307.836 188.38 308.227 190.136 308.227ZM243.149 298.626C243.149 299.133 243.11 299.855 243.032 300.792H218.503C218.932 303.094 220.044 304.929 221.84 306.295C223.674 307.622 225.938 308.285 228.631 308.285C232.065 308.285 234.895 307.153 237.119 304.89L241.042 309.398C239.637 311.076 237.861 312.344 235.714 313.203C233.568 314.062 231.148 314.491 228.455 314.491C225.021 314.491 221.996 313.808 219.381 312.442C216.766 311.076 214.736 309.183 213.292 306.763C211.887 304.304 211.185 301.533 211.185 298.45C211.185 295.406 211.868 292.674 213.234 290.254C214.639 287.795 216.571 285.883 219.03 284.517C221.488 283.151 224.259 282.468 227.343 282.468C230.387 282.468 233.099 283.151 235.48 284.517C237.9 285.844 239.773 287.737 241.1 290.195C242.466 292.615 243.149 295.425 243.149 298.626ZM227.343 288.322C225.001 288.322 223.011 289.025 221.371 290.43C219.771 291.796 218.795 293.63 218.444 295.933H236.183C235.871 293.669 234.914 291.835 233.314 290.43C231.714 289.025 229.723 288.322 227.343 288.322ZM5.48659 357.819H12.8045V389.081H5.48659V357.819ZM9.17481 352.667C7.84783 352.667 6.73551 352.257 5.83785 351.438C4.94019 350.579 4.49136 349.525 4.49136 348.276C4.49136 347.028 4.94019 345.993 5.83785 345.174C6.73551 344.315 7.84783 343.886 9.17481 343.886C10.5018 343.886 11.6141 344.296 12.5118 345.115C13.4094 345.896 13.8583 346.891 13.8583 348.101C13.8583 349.389 13.4094 350.482 12.5118 351.379C11.6531 352.238 10.5408 352.667 9.17481 352.667ZM22.4092 345.642H29.7271V389.081H22.4092V345.642ZM39.3318 345.642H46.6497V389.081H39.3318V345.642ZM86.5213 357.819V389.081H79.5547V385.1C78.3838 386.505 76.9202 387.598 75.1639 388.379C73.4076 389.12 71.5147 389.491 69.4852 389.491C65.3092 389.491 62.0112 388.34 59.5914 386.037C57.2107 383.695 56.0203 380.241 56.0203 375.675V357.819H63.3382V374.679C63.3382 377.49 63.9627 379.597 65.2116 381.002C66.4995 382.368 68.3144 383.051 70.6561 383.051C73.271 383.051 75.3395 382.251 76.8617 380.651C78.4228 379.012 79.2034 376.67 79.2034 373.626V357.819H86.5213ZM105.762 389.491C103.225 389.491 100.747 389.159 98.3273 388.496C95.9076 387.832 93.9756 386.993 92.5316 385.978L95.3416 380.417C96.7467 381.353 98.4249 382.114 100.376 382.7C102.367 383.246 104.318 383.519 106.231 383.519C110.602 383.519 112.788 382.368 112.788 380.065C112.788 378.973 112.222 378.212 111.09 377.782C109.997 377.353 108.221 376.943 105.762 376.553C103.186 376.163 101.079 375.714 99.4397 375.206C97.8395 374.699 96.4344 373.821 95.2246 372.572C94.0537 371.284 93.4683 369.508 93.4683 367.244C93.4683 364.278 94.6977 361.917 97.1565 360.161C99.6543 358.365 103.011 357.468 107.226 357.468C109.372 357.468 111.519 357.721 113.666 358.229C115.812 358.697 117.569 359.341 118.935 360.161L116.124 365.722C113.471 364.161 110.485 363.381 107.167 363.381C105.021 363.381 103.382 363.712 102.25 364.376C101.157 365 100.611 365.839 100.611 366.893C100.611 368.064 101.196 368.903 102.367 369.411C103.577 369.879 105.431 370.328 107.928 370.757C110.426 371.147 112.475 371.596 114.075 372.104C115.676 372.611 117.042 373.47 118.173 374.679C119.344 375.889 119.93 377.607 119.93 379.831C119.93 382.758 118.661 385.1 116.124 386.856C113.588 388.613 110.134 389.491 105.762 389.491ZM145.024 387.383C144.166 388.086 143.112 388.613 141.863 388.964C140.653 389.315 139.365 389.491 137.999 389.491C134.564 389.491 131.911 388.593 130.037 386.798C128.164 385.003 127.227 382.388 127.227 378.953V363.907H122.075V358.053H127.227V350.911H134.545V358.053H142.917V363.907H134.545V378.777C134.545 380.3 134.916 381.47 135.657 382.29C136.399 383.071 137.472 383.461 138.877 383.461C140.516 383.461 141.882 383.032 142.975 382.173L145.024 387.383ZM158.011 362.385C160.118 359.107 163.826 357.468 169.134 357.468V364.434C168.509 364.317 167.944 364.259 167.436 364.259C164.587 364.259 162.362 365.098 160.762 366.776C159.162 368.415 158.362 370.796 158.362 373.918V389.081H151.044V357.819H158.011V362.385ZM187.113 357.468C191.718 357.468 195.231 358.58 197.651 360.805C200.11 362.99 201.339 366.308 201.339 370.757V389.081H194.431V385.276C193.533 386.642 192.245 387.696 190.567 388.437C188.928 389.14 186.937 389.491 184.596 389.491C182.254 389.491 180.205 389.101 178.449 388.32C176.692 387.5 175.326 386.388 174.351 384.983C173.414 383.539 172.946 381.919 172.946 380.124C172.946 377.314 173.98 375.07 176.048 373.391C178.156 371.674 181.454 370.816 185.942 370.816H194.021V370.347C194.021 368.162 193.358 366.483 192.031 365.313C190.743 364.142 188.811 363.556 186.235 363.556C184.479 363.556 182.742 363.829 181.025 364.376C179.346 364.922 177.922 365.683 176.751 366.659L173.882 361.332C175.522 360.083 177.492 359.126 179.795 358.463C182.098 357.799 184.537 357.468 187.113 357.468ZM186.118 384.163C187.952 384.163 189.572 383.754 190.977 382.934C192.421 382.075 193.436 380.865 194.021 379.304V375.675H186.469C182.254 375.675 180.146 377.06 180.146 379.831C180.146 381.158 180.673 382.212 181.727 382.993C182.781 383.773 184.244 384.163 186.118 384.163ZM229.523 387.383C228.664 388.086 227.611 388.613 226.362 388.964C225.152 389.315 223.864 389.491 222.498 389.491C219.063 389.491 216.409 388.593 214.536 386.798C212.663 385.003 211.726 382.388 211.726 378.953V363.907H206.574V358.053H211.726V350.911H219.044V358.053H227.415V363.907H219.044V378.777C219.044 380.3 219.415 381.47 220.156 382.29C220.898 383.071 221.971 383.461 223.376 383.461C225.015 383.461 226.381 383.032 227.474 382.173L229.523 387.383ZM248.564 389.491C245.403 389.491 242.554 388.808 240.017 387.442C237.48 386.076 235.49 384.183 234.045 381.763C232.64 379.304 231.938 376.533 231.938 373.45C231.938 370.367 232.64 367.615 234.045 365.195C235.49 362.776 237.48 360.883 240.017 359.517C242.554 358.151 245.403 357.468 248.564 357.468C251.765 357.468 254.633 358.151 257.17 359.517C259.707 360.883 261.678 362.776 263.083 365.195C264.527 367.615 265.249 370.367 265.249 373.45C265.249 376.533 264.527 379.304 263.083 381.763C261.678 384.183 259.707 386.076 257.17 387.442C254.633 388.808 251.765 389.491 248.564 389.491ZM248.564 383.227C251.257 383.227 253.482 382.329 255.238 380.534C256.994 378.738 257.873 376.377 257.873 373.45C257.873 370.523 256.994 368.162 255.238 366.366C253.482 364.571 251.257 363.673 248.564 363.673C245.871 363.673 243.647 364.571 241.89 366.366C240.173 368.162 239.314 370.523 239.314 373.45C239.314 376.377 240.173 378.738 241.89 380.534C243.647 382.329 245.871 383.227 248.564 383.227ZM279.213 362.385C281.321 359.107 285.029 357.468 290.337 357.468V364.434C289.712 364.317 289.146 364.259 288.639 364.259C285.79 364.259 283.565 365.098 281.965 366.776C280.365 368.415 279.565 370.796 279.565 373.918V389.081H272.247V357.819H279.213V362.385Z" fill="#545454"/>
<defs>
<clipPath id="clip0_21_158">
<rect width="104.541" height="104.541" fill="white" transform="translate(91.9965 66.9062)"/>
</clipPath>
</defs>
</svg>
