<svg width="235" height="331" viewBox="0 0 235 331" fill="none" xmlns="http://www.w3.org/2000/svg">
<circle cx="117.086" cy="117.086" r="91.9964" fill="#C4C4C4" fill-opacity="0.4"/>
<path d="M66.9065 62.7246L74.2551 172.518L119.177 188.174L164.099 172.518L171.448 62.7246H66.9065Z" fill="#FF7816"/>
<path d="M151.829 96.0468H100.459L101.707 114.423H150.582L147.6 158.918L119.177 168.989L90.7539 158.918L89.7836 144.071H103.649L103.926 148.113L119.177 153.479L134.429 148.113L135.676 129.124H88.7437L85.5546 81.3457H152.8L151.829 96.0468Z" fill="#ECECF1"/>
<path d="M34.2938 34.2938C21.1804 47.4072 11.3694 63.448 5.66883 81.0953C-0.0317411 98.7426 -1.45889 117.492 1.50492 135.798C4.46872 154.105 11.7387 171.446 22.7162 186.393C33.6937 201.341 48.0647 213.467 64.6458 221.773C81.227 230.079 99.544 234.327 118.088 234.168C136.633 234.01 154.875 229.448 171.311 220.86C187.748 212.271 201.909 199.901 212.629 184.768C223.349 169.635 230.321 152.172 232.971 133.817L215.237 131.257C212.993 146.803 207.087 161.593 198.008 174.41C188.928 187.228 176.934 197.705 163.013 204.979C149.092 212.253 133.642 216.117 117.935 216.251C102.229 216.385 86.7146 212.787 72.6709 205.752C58.6272 198.717 46.4554 188.447 37.1579 175.787C27.8603 163.127 21.7028 148.44 19.1926 132.935C16.6823 117.43 17.8911 101.55 22.7193 86.6031C27.5475 71.6564 35.8571 58.0704 46.9637 46.9637L34.2938 34.2938Z" fill="#3B5999"/>
<path d="M46.0986 273.1V314.08H38.488V296.517H17.2954V314.08H9.68476V273.1H17.2954V290.019H38.488V273.1H46.0986ZM65.3927 279.54H51.8107V273.1H86.5853V279.54H73.0033V314.08H65.3927V279.54ZM129.94 314.08L129.882 286.916L116.417 309.397H113.021L99.5563 287.267V314.08H92.2969V273.1H98.561L114.836 300.264L130.818 273.1H137.082L137.141 314.08H129.94ZM148.21 273.1H155.821V307.64H177.248V314.08H148.21V273.1ZM209.329 288.965C215.106 288.965 219.379 290.097 222.15 292.361C224.921 294.585 226.307 297.629 226.307 301.493C226.307 303.952 225.702 306.177 224.492 308.167C223.282 310.158 221.467 311.738 219.047 312.909C216.628 314.08 213.642 314.666 210.09 314.666C207.163 314.666 204.334 314.256 201.602 313.436C198.87 312.577 196.567 311.407 194.693 309.924L197.913 304.011C199.435 305.26 201.25 306.255 203.358 306.996C205.504 307.699 207.71 308.05 209.973 308.05C212.666 308.05 214.774 307.504 216.296 306.411C217.857 305.279 218.638 303.737 218.638 301.786C218.638 299.678 217.799 298.098 216.12 297.044C214.481 295.951 211.651 295.405 207.632 295.405H197.738L199.845 273.1H223.907V279.481H206.285L205.407 288.965H209.329Z" fill="#545454"/>
</svg>
